<svg id="Capa_1" enable-background="new 0 0 512 512" height="512" viewBox="0 0 512 512" width="512" xmlns="http://www.w3.org/2000/svg"><g><g><path d="m192.092 370.915c-1.08-35.375-27.283-64.759-62.303-69.868-7.881-1.151-15.755 1.292-21.602 6.701l-19.936 18.442c-11.412 10.556-11.216 28.762.584 39.041 16.846 14.672 29.623 33.583 36.951 54.688 7.023 20.228 32.48 26.525 48.14 12.04 25.341-23.444 17.208-52.834 18.166-61.044zm-28.351 50.031c-7.702 7.126-20.287 4.121-23.783-5.948-8.184-23.571-22.455-44.692-41.27-61.08-5.006-4.36-5.198-12.139-.25-16.717l19.936-18.441c2.543-2.352 5.931-3.354 9.25-2.869 27.81 4.057 48.618 27.391 49.475 55.482-.892 8.791 6.092 31.58-13.358 49.573z"/><path d="m494.461 24.958-30.571-21.492c-6.959-4.893-16.441-4.577-23.06.773l-71.491 57.788c-3.222 2.604-3.722 7.326-1.118 10.548 2.605 3.221 7.327 3.723 10.548 1.118l71.49-57.788c1.437-1.16 3.491-1.23 5.003-.168l30.571 21.493c1.296.912 1.968 2.511 1.71 4.075l-2.964 17.989c-.328 1.993-1.528 3.7-3.293 4.684l-18.889 10.529c-5.783 3.224-9.717 8.819-10.791 15.35l-3.514 21.334c-.328 1.994-1.528 3.701-3.293 4.685l-18.888 10.528c-5.781 3.222-9.715 8.817-10.791 15.349l-3.513 21.333c-.328 1.994-1.529 3.702-3.294 4.685l-18.885 10.525c-5.784 3.224-9.718 8.82-10.792 15.351l-3.511 21.328c-.328 1.994-1.529 3.702-3.294 4.686l-18.881 10.521c-5.784 3.223-9.719 8.819-10.793 15.351l-3.514 21.334c-.328 1.993-1.528 3.7-3.293 4.683l-18.884 10.525c-5.784 3.223-9.719 8.819-10.793 15.351l-3.512 21.33c-.328 1.994-1.529 3.702-3.294 4.686l-18.883 10.523c-5.784 3.224-9.718 8.82-10.792 15.351l-3.512 21.331c-.328 1.993-1.528 3.7-3.294 4.684l-13.193 7.352c-7.29 4.064-13.976 2.035-15.125 2.024l.754-82.429c.076-8.294-3.221-16.438-9.045-22.343-46.918-47.55-44.254-44.923-45.347-45.922l171.243-138.418c3.222-2.604 3.722-7.326 1.118-10.548-2.604-3.22-7.326-3.722-10.548-1.118l-176.868 142.966c-7.898-1.162-16.223.951-22.684 6.453l-122.4 104.219c-11.691 9.955-14.332 26.967-6.135 39.926 7.447 11.773 21.928 17.067 35.21 12.874 2.29-.722 4.657.01 5.894 1.822l53.005 77.641c1.158 1.696 1.792 3.677 1.834 5.729.762 7.483-1.807 17.113 5.662 26.651 9.376 11.971 27.151 13.183 38.047 2.437l19.263-18.998c2.949-2.909 2.982-7.658.073-10.607s-7.658-2.982-10.607-.073l-19.263 18.998c-4.538 4.476-11.855 3.907-15.703-1.005-3.41-4.354-1.851-8.49-2.474-17.709-.102-4.972-1.638-9.771-4.442-13.879l-53.007-77.644c-4.994-7.315-14.155-10.398-22.798-7.67-6.796 2.146-14.207-.563-18.017-6.587-4.188-6.622-2.856-15.346 3.182-20.485l122.401-104.22c5.366-4.57 13.447-4.218 18.397.801l44.284 44.901c3.043 3.085 4.765 7.34 4.726 11.673l-1.003 109.765c-.045 4.912-1.996 9.517-5.494 12.967l-25.696 25.342c-2.949 2.909-2.982 7.658-.073 10.607 2.908 2.949 7.657 2.982 10.607.073l25.695-25.342c6.342-6.254 9.879-14.604 9.96-23.511l.112-12.212c.326-.021 11.119 2.334 22.566-4.046l13.193-7.352c5.784-3.224 9.718-8.82 10.792-15.352l3.512-21.33c.328-1.993 1.528-3.7 3.294-4.684l18.883-10.523c5.782-3.222 9.716-8.817 10.792-15.351l3.512-21.331c.328-1.993 1.528-3.7 3.294-4.684l18.884-10.525c5.784-3.223 9.718-8.818 10.792-15.35l3.514-21.334c.328-1.993 1.528-3.7 3.294-4.684l18.88-10.521c5.783-3.222 9.718-8.818 10.794-15.352l3.511-21.33c.328-1.992 1.528-3.7 3.294-4.684l18.885-10.525c5.782-3.222 9.716-8.817 10.792-15.35l3.513-21.333c.328-1.994 1.528-3.701 3.293-4.685l18.888-10.527c5.781-3.223 9.715-8.817 10.791-15.35l3.514-21.336c.328-1.993 1.528-3.7 3.293-4.684l18.888-10.529c5.782-3.222 9.716-8.816 10.792-15.348l2.964-17.99c1.187-7.21-1.908-14.583-7.884-18.784z"/></g><circle cx="161.85" cy="274.463" r="7.424"/><circle cx="185.612" cy="298.225" r="7.424"/></g></svg>