<svg id="Capa_1" enable-background="new 0 0 512 512" height="512" viewBox="0 0 512 512" width="512" xmlns="http://www.w3.org/2000/svg"><g><path d="m507.608 46.82-42.427-42.426c-5.857-5.858-15.356-5.858-21.213 0l-74.568 74.567c-5.854 5.853-5.858 15.356 0 21.213l10.607 10.606-20.142 20.142-47.694-47.694c-8.11-8.111-22.022-4.464-25.07 6.633l-44.16 160.761c-3.07 11.176 7.214 21.521 18.437 18.438l160.762-44.159c11.085-3.045 14.754-16.95 6.633-25.071l-47.694-47.694 20.142-20.142 10.607 10.606c5.857 5.858 15.355 5.859 21.213 0l74.568-74.567c5.853-5.853 5.857-15.356-.001-21.213zm-118.287 155.984-110.468 30.345 30.344-110.469 29.455 29.455-12.486 12.486c-5.858 5.856-5.861 15.354-.005 21.213 5.856 5.858 15.353 5.863 21.214.005l12.49-12.49zm33.113-92.023c-3.48-3.48-3.685-3.685-21.214-21.213l53.355-53.354 21.214 21.213z"/><path d="m470.939 302c-26.654 0-249.886 0-258.563 0v-75c0-8.284-6.716-15-15-15h-182.376c-8.284 0-15 6.716-15 15v90c0 8.284 6.716 15 15 15h76.188v60h-76.188c-8.284 0-15 6.716-15 15v90c0 8.284 6.716 15 15 15h364.751c8.284 0 15-6.716 15-15v-75h76.188c8.284 0 15-6.716 15-15v-90c0-8.284-6.716-15-15-15zm-440.939-60h152.376v60c-6.698 0-145.695 0-152.376 0zm91.188 90h152.376v60c-6.698 0-145.695 0-152.376 0zm-91.188 90h152.376v60h-152.376zm334.751 60h-152.375v-60h152.376v60zm91.188-90c-6.698 0-145.695 0-152.376 0v-60h152.376z"/></g></svg>